<svg width="110" height="49" viewBox="0 0 110 49" fill="none" xmlns="http://www.w3.org/2000/svg">
<path d="M33.012 8.756C34.62 9.332 35.424 10.1 35.424 11.06C35.424 11.372 35.28 11.96 34.992 12.824L28.08 32.804C28.032 32.972 27.948 33.176 27.828 33.416C27.708 33.656 27.384 33.98 26.856 34.388C26.352 34.772 25.74 34.964 25.02 34.964C24.324 34.964 23.712 34.772 23.184 34.388C22.68 33.98 22.344 33.584 22.176 33.2L17.964 20.78C15.3 28.652 13.944 32.66 13.896 32.804C13.848 32.948 13.74 33.152 13.572 33.416C13.404 33.68 13.212 33.92 12.996 34.136C12.444 34.688 11.784 34.964 11.016 34.964C10.248 34.964 9.612 34.784 9.108 34.424C8.628 34.064 8.304 33.704 8.136 33.344L7.884 32.804L0.936 12.824C0.672 12.032 0.54 11.444 0.54 11.06C0.54 10.1 1.344 9.344 2.952 8.792C3.648 8.552 4.272 8.432 4.824 8.432C5.4 8.432 5.832 8.624 6.12 9.008C6.432 9.392 6.708 9.98 6.948 10.772L10.908 22.796L14.832 10.952C15.168 9.944 15.78 9.248 16.668 8.864C17.052 8.696 17.544 8.612 18.144 8.612C18.768 8.612 19.344 8.816 19.872 9.224C20.4 9.608 20.736 9.992 20.88 10.376L25.02 22.868L28.98 10.772C29.172 10.22 29.328 9.812 29.448 9.548C29.568 9.284 29.784 9.032 30.096 8.792C30.432 8.528 30.84 8.396 31.32 8.396C31.8 8.396 32.364 8.516 33.012 8.756ZM52.9816 23.264C52.9816 24.728 52.6096 25.82 51.8656 26.54C51.1456 27.236 50.3416 27.584 49.4536 27.584H40.9216C40.9216 28.256 41.3176 28.82 42.1096 29.276C42.9016 29.732 43.6936 29.96 44.4856 29.96C45.8776 29.96 46.9696 29.816 47.7616 29.528L48.1576 29.384C48.7336 29.12 49.2136 28.988 49.5976 28.988C50.3656 28.988 51.0256 29.528 51.5776 30.608C51.8896 31.256 52.0456 31.808 52.0456 32.264C52.0456 34.4 49.4896 35.468 44.3776 35.468C42.6016 35.468 41.0176 35.168 39.6256 34.568C38.2576 33.944 37.1896 33.128 36.4216 32.12C34.9096 30.176 34.1536 28.004 34.1536 25.604C34.1536 22.58 35.1256 20.168 37.0696 18.368C39.0376 16.544 41.4856 15.632 44.4136 15.632C47.7496 15.632 50.1976 16.808 51.7576 19.16C52.5736 20.408 52.9816 21.776 52.9816 23.264ZM45.3856 24.308C46.2976 24.308 46.7536 23.924 46.7536 23.156C46.7536 22.604 46.5376 22.16 46.1056 21.824C45.6976 21.488 45.0976 21.32 44.3056 21.32C43.5376 21.32 42.7696 21.644 42.0016 22.292C41.2336 22.916 40.8496 23.588 40.8496 24.308H45.3856ZM68.9023 19.088H75.2383C76.5343 19.136 77.3263 19.472 77.6143 20.096C77.8543 20.552 77.9743 21.224 77.9743 22.112V30.032C77.9743 30.8 77.6383 31.532 76.9663 32.228C74.9503 34.316 71.9263 35.36 67.8943 35.36C64.3183 35.36 61.2103 34.016 58.5703 31.328C55.9303 28.616 54.6103 25.352 54.6103 21.536C54.6103 17.72 55.9543 14.54 58.6423 11.996C61.3303 9.428 64.4983 8.144 68.1463 8.144C70.9783 8.144 73.6543 9.08 76.1743 10.952C76.8223 11.432 77.1463 11.972 77.1463 12.572C77.1463 13.148 76.8703 13.82 76.3183 14.588C75.3823 15.86 74.5303 16.496 73.7623 16.496C73.3063 16.496 72.5743 16.172 71.5663 15.524C70.5583 14.852 69.3583 14.516 67.9663 14.516C66.1423 14.516 64.5223 15.164 63.1063 16.46C61.6903 17.732 60.9823 19.412 60.9823 21.5C60.9823 23.564 61.7023 25.328 63.1423 26.792C64.5823 28.232 66.2143 28.952 68.0383 28.952C69.3583 28.952 70.5463 28.736 71.6023 28.304V24.38H68.7583C68.0143 24.38 67.4863 24.284 67.1743 24.092C66.8623 23.9 66.6583 23.624 66.5623 23.264C66.4663 22.88 66.4183 22.376 66.4183 21.752C66.4183 21.104 66.4663 20.588 66.5623 20.204C66.6823 19.82 66.8863 19.556 67.1743 19.412C67.6063 19.196 68.1823 19.088 68.9023 19.088ZM93.0535 8.288C96.6055 8.288 99.6895 9.572 102.306 12.14C104.922 14.708 106.23 17.9 106.23 21.716C106.23 25.508 104.982 28.748 102.486 31.436C99.9895 34.1 96.9175 35.432 93.2695 35.432C89.6215 35.432 86.5135 34.112 83.9455 31.472C81.4015 28.832 80.1295 25.688 80.1295 22.04C80.1295 20.048 80.4895 18.188 81.2095 16.46C81.9295 14.708 82.8895 13.244 84.0895 12.068C85.2895 10.892 86.6695 9.968 88.2295 9.296C89.7895 8.624 91.3975 8.288 93.0535 8.288ZM86.5015 21.86C86.5015 23.996 87.1855 25.736 88.5535 27.08C89.9455 28.4 91.4935 29.06 93.1975 29.06C94.9015 29.06 96.4375 28.412 97.8055 27.116C99.1735 25.82 99.8575 24.08 99.8575 21.896C99.8575 19.712 99.1615 17.96 97.7695 16.64C96.4015 15.32 94.8655 14.66 93.1615 14.66C91.4575 14.66 89.9215 15.332 88.5535 16.676C87.1855 17.996 86.5015 19.724 86.5015 21.86Z" fill="white"/>
<path d="M70 42.5C70.5 43.5 72.4697 44.563 74.5 45.5C78.6814 47.4299 81.5 47.5 84.5 47.5C87.2064 47.5 89.2738 46.9087 92 46C94.7262 45.0913 100 41 99.5 41C98.7929 41 101 44 103 45" stroke="white" stroke-width="3"/>
</svg>
