<svg width="1440" height="786" viewBox="0 0 1440 786" fill="none" xmlns="http://www.w3.org/2000/svg">
<g clip-path="url(#clip0)">
<rect width="1440" height="786" fill="white"/>
<path d="M123.58 685.798L112.896 692.477L119.41 680.783C117.591 679.316 115.336 678.497 113 678.454L112.829 678.453C112.09 678.464 111.352 678.405 110.625 678.277L107.01 680.544L108.567 677.745C106.02 676.836 103.825 675.146 102.293 672.918L95.8275 676.991L99.9354 669.604C96.1942 665.058 91.1288 662.257 85.5345 662.226C78.8311 662.189 72.8384 666.142 68.9494 672.338C67.796 674.193 66.1716 675.71 64.2416 676.734C62.3115 677.758 60.1446 678.252 57.9615 678.166L57.6055 678.164C50.2036 678.124 44.1594 686.479 44.1027 696.832C44.0459 707.185 49.9982 715.606 57.4001 715.646C59.0265 715.65 60.6293 715.257 62.0694 714.501C64.5963 713.292 67.3553 712.646 70.1561 712.607C72.9568 712.568 75.7328 713.137 78.2923 714.275C80.4543 715.26 82.7997 715.78 85.1757 715.799C87.5517 715.817 89.905 715.336 92.0825 714.385C94.633 713.296 97.3876 712.768 100.16 712.836C102.932 712.904 105.658 713.568 108.151 714.781C109.574 715.534 111.157 715.934 112.767 715.95C120.169 715.99 126.213 707.635 126.27 697.282C126.351 693.289 125.426 689.34 123.58 685.798V685.798Z" fill="#F2F2F2"/>
<path d="M799.58 763.798L788.896 770.477L795.41 758.783C793.591 757.316 791.336 756.497 789 756.454L788.829 756.453C788.09 756.464 787.352 756.405 786.625 756.277L783.01 758.544L784.567 755.745C782.02 754.836 779.825 753.146 778.293 750.918L771.828 754.991L775.935 747.604C772.194 743.058 767.129 740.257 761.535 740.226C754.831 740.189 748.838 744.142 744.949 750.338C743.796 752.193 742.172 753.71 740.242 754.734C738.311 755.758 736.145 756.252 733.962 756.166L733.605 756.164C726.204 756.124 720.159 764.479 720.103 774.832C720.046 785.185 725.998 793.606 733.4 793.646C735.027 793.65 736.629 793.257 738.069 792.501C740.596 791.292 743.355 790.646 746.156 790.607C748.957 790.568 751.733 791.137 754.292 792.275C756.454 793.26 758.8 793.78 761.176 793.799C763.552 793.817 765.905 793.336 768.082 792.385C770.633 791.296 773.388 790.768 776.16 790.836C778.932 790.904 781.658 791.568 784.151 792.781C785.574 793.534 787.157 793.934 788.767 793.95C796.169 793.99 802.213 785.635 802.27 775.282C802.351 771.289 801.426 767.34 799.58 763.798V763.798Z" fill="#F2F2F2"/>
<path d="M1427.58 119.798L1416.9 126.477L1423.41 114.783C1421.59 113.316 1419.34 112.497 1417 112.454L1416.83 112.453C1416.09 112.464 1415.35 112.405 1414.62 112.277L1411.01 114.544L1412.57 111.745C1410.02 110.836 1407.82 109.146 1406.29 106.918L1399.83 110.991L1403.94 103.604C1400.19 99.0577 1395.13 96.2567 1389.53 96.226C1382.83 96.1893 1376.84 100.142 1372.95 106.338C1371.8 108.193 1370.17 109.71 1368.24 110.734C1366.31 111.758 1364.14 112.252 1361.96 112.166L1361.61 112.164C1354.2 112.124 1348.16 120.479 1348.1 130.832C1348.05 141.185 1354 149.606 1361.4 149.646C1363.03 149.65 1364.63 149.257 1366.07 148.501C1368.6 147.292 1371.36 146.646 1374.16 146.607C1376.96 146.568 1379.73 147.137 1382.29 148.275C1384.45 149.26 1386.8 149.78 1389.18 149.799C1391.55 149.817 1393.91 149.336 1396.08 148.385C1398.63 147.296 1401.39 146.768 1404.16 146.836C1406.93 146.904 1409.66 147.568 1412.15 148.781C1413.57 149.534 1415.16 149.934 1416.77 149.95C1424.17 149.99 1430.21 141.635 1430.27 131.282C1430.35 127.289 1429.43 123.34 1427.58 119.798V119.798Z" fill="#F2F2F2"/>
<path d="M1478.58 755.798L1467.9 762.477L1474.41 750.783C1472.59 749.316 1470.34 748.497 1468 748.454L1467.83 748.453C1467.09 748.464 1466.35 748.405 1465.62 748.277L1462.01 750.544L1463.57 747.745C1461.02 746.836 1458.82 745.146 1457.29 742.918L1450.83 746.991L1454.94 739.604C1451.19 735.058 1446.13 732.257 1440.53 732.226C1433.83 732.189 1427.84 736.142 1423.95 742.338C1422.8 744.193 1421.17 745.71 1419.24 746.734C1417.31 747.758 1415.14 748.252 1412.96 748.166L1412.61 748.164C1405.2 748.124 1399.16 756.479 1399.1 766.832C1399.05 777.185 1405 785.606 1412.4 785.646C1414.03 785.65 1415.63 785.257 1417.07 784.501C1419.6 783.292 1422.36 782.646 1425.16 782.607C1427.96 782.568 1430.73 783.137 1433.29 784.275C1435.45 785.26 1437.8 785.78 1440.18 785.799C1442.55 785.817 1444.91 785.336 1447.08 784.385C1449.63 783.296 1452.39 782.768 1455.16 782.836C1457.93 782.904 1460.66 783.568 1463.15 784.781C1464.57 785.534 1466.16 785.934 1467.77 785.95C1475.17 785.99 1481.21 777.635 1481.27 767.282C1481.35 763.289 1480.43 759.34 1478.58 755.798V755.798Z" fill="#F2F2F2"/>
<path d="M137.58 125.798L126.896 132.477L133.41 120.783C131.592 119.316 129.336 118.497 127 118.454L126.829 118.453C126.09 118.464 125.352 118.405 124.625 118.277L121.011 120.544L122.567 117.745C120.02 116.836 117.825 115.146 116.293 112.918L109.828 116.991L113.936 109.604C110.194 105.058 105.129 102.257 99.5347 102.226C92.8312 102.189 86.8386 106.142 82.9495 112.338C81.7961 114.193 80.1717 115.71 78.2417 116.734C76.3116 117.758 74.1448 118.252 71.9616 118.166L71.6056 118.164C64.2037 118.124 58.1595 126.479 58.1028 136.832C58.0461 147.185 63.9983 155.606 71.4002 155.646C73.0266 155.65 74.6294 155.257 76.0696 154.501C78.5964 153.292 81.3554 152.646 84.1562 152.607C86.957 152.568 89.7329 153.137 92.2924 154.275C94.4545 155.26 96.7998 155.78 99.1758 155.799C101.552 155.817 103.905 155.336 106.083 154.385C108.633 153.296 111.388 152.768 114.16 152.836C116.932 152.904 119.658 153.568 122.151 154.781C123.575 155.534 125.157 155.934 126.767 155.95C134.169 155.99 140.213 147.635 140.27 137.282C140.351 133.289 139.426 129.34 137.58 125.798V125.798Z" fill="#F2F2F2"/>
<path d="M1355.58 487.798L1344.9 494.477L1351.41 482.783C1349.59 481.316 1347.34 480.497 1345 480.454L1344.83 480.453C1344.09 480.464 1343.35 480.405 1342.62 480.277L1339.01 482.544L1340.57 479.745C1338.02 478.836 1335.82 477.146 1334.29 474.918L1327.83 478.991L1331.94 471.604C1328.19 467.058 1323.13 464.257 1317.53 464.226C1310.83 464.189 1304.84 468.142 1300.95 474.338C1299.8 476.193 1298.17 477.71 1296.24 478.734C1294.31 479.758 1292.14 480.252 1289.96 480.166L1289.61 480.164C1282.2 480.124 1276.16 488.479 1276.1 498.832C1276.05 509.185 1282 517.606 1289.4 517.646C1291.03 517.65 1292.63 517.257 1294.07 516.501C1296.6 515.292 1299.36 514.646 1302.16 514.607C1304.96 514.568 1307.73 515.137 1310.29 516.275C1312.45 517.26 1314.8 517.78 1317.18 517.799C1319.55 517.817 1321.91 517.336 1324.08 516.385C1326.63 515.296 1329.39 514.768 1332.16 514.836C1334.93 514.904 1337.66 515.568 1340.15 516.781C1341.57 517.534 1343.16 517.934 1344.77 517.95C1352.17 517.99 1358.21 509.635 1358.27 499.282C1358.35 495.289 1357.43 491.34 1355.58 487.798V487.798Z" fill="#F2F2F2"/>
</g>
<defs>
<clipPath id="clip0">
<rect width="1440" height="786" fill="white"/>
</clipPath>
</defs>
</svg>
